<svg width="1200" height="400" viewBox="0 0 680 240" xmlns="http://www.w3.org/2000/svg">
  <rect width="680" height="240" fill="#F5EFE6"/>
  <circle cx="130" cy="120" r="100" fill="#E8D9C5" opacity="0.55"/>
  <circle cx="560" cy="120" r="85" fill="#D4C4A8" opacity="0.38"/>
  <!-- dot grid -->
  <g opacity="0.13">
    <circle cx="60" cy="35" r="1.5" fill="#8B6F4E"/><circle cx="120" cy="35" r="1.5" fill="#8B6F4E"/><circle cx="180" cy="35" r="1.5" fill="#8B6F4E"/><circle cx="240" cy="35" r="1.5" fill="#8B6F4E"/><circle cx="300" cy="35" r="1.5" fill="#8B6F4E"/><circle cx="360" cy="35" r="1.5" fill="#8B6F4E"/><circle cx="420" cy="35" r="1.5" fill="#8B6F4E"/><circle cx="480" cy="35" r="1.5" fill="#8B6F4E"/><circle cx="540" cy="35" r="1.5" fill="#8B6F4E"/><circle cx="600" cy="35" r="1.5" fill="#8B6F4E"/>
    <circle cx="60" cy="80" r="1.5" fill="#8B6F4E"/><circle cx="120" cy="80" r="1.5" fill="#8B6F4E"/><circle cx="180" cy="80" r="1.5" fill="#8B6F4E"/><circle cx="240" cy="80" r="1.5" fill="#8B6F4E"/><circle cx="300" cy="80" r="1.5" fill="#8B6F4E"/><circle cx="360" cy="80" r="1.5" fill="#8B6F4E"/><circle cx="420" cy="80" r="1.5" fill="#8B6F4E"/><circle cx="480" cy="80" r="1.5" fill="#8B6F4E"/><circle cx="540" cy="80" r="1.5" fill="#8B6F4E"/><circle cx="600" cy="80" r="1.5" fill="#8B6F4E"/>
    <circle cx="60" cy="125" r="1.5" fill="#8B6F4E"/><circle cx="120" cy="125" r="1.5" fill="#8B6F4E"/><circle cx="180" cy="125" r="1.5" fill="#8B6F4E"/><circle cx="240" cy="125" r="1.5" fill="#8B6F4E"/><circle cx="300" cy="125" r="1.5" fill="#8B6F4E"/><circle cx="360" cy="125" r="1.5" fill="#8B6F4E"/><circle cx="420" cy="125" r="1.5" fill="#8B6F4E"/><circle cx="480" cy="125" r="1.5" fill="#8B6F4E"/><circle cx="540" cy="125" r="1.5" fill="#8B6F4E"/><circle cx="600" cy="125" r="1.5" fill="#8B6F4E"/>
    <circle cx="60" cy="170" r="1.5" fill="#8B6F4E"/><circle cx="120" cy="170" r="1.5" fill="#8B6F4E"/><circle cx="180" cy="170" r="1.5" fill="#8B6F4E"/><circle cx="240" cy="170" r="1.5" fill="#8B6F4E"/><circle cx="300" cy="170" r="1.5" fill="#8B6F4E"/><circle cx="360" cy="170" r="1.5" fill="#8B6F4E"/><circle cx="420" cy="170" r="1.5" fill="#8B6F4E"/><circle cx="480" cy="170" r="1.5" fill="#8B6F4E"/><circle cx="540" cy="170" r="1.5" fill="#8B6F4E"/><circle cx="600" cy="170" r="1.5" fill="#8B6F4E"/>
    <circle cx="60" cy="215" r="1.5" fill="#8B6F4E"/><circle cx="120" cy="215" r="1.5" fill="#8B6F4E"/><circle cx="180" cy="215" r="1.5" fill="#8B6F4E"/><circle cx="240" cy="215" r="1.5" fill="#8B6F4E"/><circle cx="300" cy="215" r="1.5" fill="#8B6F4E"/><circle cx="360" cy="215" r="1.5" fill="#8B6F4E"/><circle cx="420" cy="215" r="1.5" fill="#8B6F4E"/><circle cx="480" cy="215" r="1.5" fill="#8B6F4E"/><circle cx="540" cy="215" r="1.5" fill="#8B6F4E"/><circle cx="600" cy="215" r="1.5" fill="#8B6F4E"/>
  </g>
  <!-- left shelf board -->
  <rect x="48" y="158" width="182" height="5" rx="2" fill="#8B6F4E" opacity="0.55"/>
  <!-- left books -->
  <rect x="55" y="114" width="15" height="44" rx="2" fill="#C17F5A"/>
  <rect x="72" y="120" width="12" height="38" rx="2" fill="#6B8F71"/>
  <rect x="86" y="108" width="17" height="50" rx="2" fill="#8B7355"/>
  <rect x="105" y="122" width="11" height="36" rx="2" fill="#A0785A"/>
  <rect x="118" y="114" width="14" height="44" rx="2" fill="#5C7A6B"/>
  <rect x="134" y="121" width="11" height="37" rx="2" fill="#C4A882"/>
  <rect x="147" y="110" width="16" height="48" rx="2" fill="#7A6048"/>
  <rect x="165" y="117" width="13" height="41" rx="2" fill="#B8956A"/>
  <rect x="180" y="123" width="10" height="35" rx="2" fill="#6E8C75"/>
  <rect x="192" y="111" width="14" height="47" rx="2" fill="#A08060"/>
  <line x1="63" y1="126" x2="63" y2="155" stroke="#F5EFE6" stroke-width="0.5" opacity="0.5"/>
  <line x1="93" y1="118" x2="93" y2="155" stroke="#F5EFE6" stroke-width="0.5" opacity="0.5"/>
  <line x1="151" y1="122" x2="151" y2="155" stroke="#F5EFE6" stroke-width="0.5" opacity="0.5"/>
  <!-- circulation arc -->
  <path d="M 234 158 Q 340 52 446 158" fill="none" stroke="#8B6F4E" stroke-width="1.5" opacity="0.38" stroke-dasharray="5 4"/>
  <path d="M 442 153 L 448 159 L 438 161" fill="none" stroke="#8B6F4E" stroke-width="1.5" opacity="0.38" stroke-linecap="round" stroke-linejoin="round"/>
  <circle cx="234" cy="158" r="4" fill="#8B6F4E" opacity="0.4"/>
  <circle cx="446" cy="158" r="4" fill="#8B6F4E" opacity="0.4"/>
  <path d="M 268 136 Q 340 82 412 136" fill="none" stroke="#A08060" stroke-width="1" opacity="0.22" stroke-dasharray="3 5"/>
  <!-- right shelf board -->
  <rect x="450" y="158" width="182" height="5" rx="2" fill="#8B6F4E" opacity="0.55"/>
  <!-- right books -->
  <rect x="457" y="114" width="14" height="44" rx="2" fill="#6B8F71"/>
  <rect x="473" y="121" width="11" height="37" rx="2" fill="#A0785A"/>
  <rect x="486" y="108" width="17" height="50" rx="2" fill="#C17F5A"/>
  <rect x="505" y="116" width="13" height="42" rx="2" fill="#8B7355"/>
  <rect x="520" y="123" width="10" height="35" rx="2" fill="#5C7A6B"/>
  <rect x="532" y="110" width="16" height="48" rx="2" fill="#C4A882"/>
  <rect x="550" y="118" width="12" height="40" rx="2" fill="#7A6048"/>
  <rect x="564" y="124" width="11" height="34" rx="2" fill="#B8956A"/>
  <rect x="577" y="109" width="15" height="49" rx="2" fill="#6E8C75"/>
  <rect x="594" y="117" width="13" height="41" rx="2" fill="#A08060"/>
  <rect x="609" y="122" width="13" height="36" rx="2" fill="#C17F5A" opacity="0.65"/>
  <line x1="465" y1="128" x2="465" y2="155" stroke="#F5EFE6" stroke-width="0.5" opacity="0.5"/>
  <line x1="493" y1="120" x2="493" y2="155" stroke="#F5EFE6" stroke-width="0.5" opacity="0.5"/>
  <line x1="538" y1="124" x2="538" y2="155" stroke="#F5EFE6" stroke-width="0.5" opacity="0.5"/>
  <line x1="581" y1="121" x2="581" y2="155" stroke="#F5EFE6" stroke-width="0.5" opacity="0.5"/>
  <!-- center text -->
  <text x="340" y="94" text-anchor="middle" font-family="Georgia, serif" font-size="28" font-weight="500" fill="#5C4033" letter-spacing="4">MEGURU</text>
  <text x="340" y="116" text-anchor="middle" font-family="Georgia, serif" font-size="10" fill="#8B6F4E" letter-spacing="2">一箱本棚</text>
  <text x="340" y="136" text-anchor="middle" font-family="sans-serif" font-size="9" fill="#8B6F4E" opacity="0.85" letter-spacing="0.8">想いをひらき、共感・応援がめぐる</text>
</svg>
