<svg width="1200" height="265" viewBox="0 0 680 150" xmlns="http://www.w3.org/2000/svg">
  <rect width="680" height="150" fill="#F5EFE6"/>
  <circle cx="130" cy="75" r="65" fill="#E8D9C5" opacity="0.5"/>
  <circle cx="560" cy="75" r="55" fill="#D4C4A8" opacity="0.35"/>
  <g opacity="0.13">
    <circle cx="60" cy="30" r="1.5" fill="#8B6F4E"/><circle cx="120" cy="30" r="1.5" fill="#8B6F4E"/><circle cx="180" cy="30" r="1.5" fill="#8B6F4E"/><circle cx="240" cy="30" r="1.5" fill="#8B6F4E"/><circle cx="300" cy="30" r="1.5" fill="#8B6F4E"/><circle cx="360" cy="30" r="1.5" fill="#8B6F4E"/><circle cx="420" cy="30" r="1.5" fill="#8B6F4E"/><circle cx="480" cy="30" r="1.5" fill="#8B6F4E"/><circle cx="540" cy="30" r="1.5" fill="#8B6F4E"/><circle cx="600" cy="30" r="1.5" fill="#8B6F4E"/>
    <circle cx="60" cy="75" r="1.5" fill="#8B6F4E"/><circle cx="120" cy="75" r="1.5" fill="#8B6F4E"/><circle cx="180" cy="75" r="1.5" fill="#8B6F4E"/><circle cx="240" cy="75" r="1.5" fill="#8B6F4E"/><circle cx="300" cy="75" r="1.5" fill="#8B6F4E"/><circle cx="360" cy="75" r="1.5" fill="#8B6F4E"/><circle cx="420" cy="75" r="1.5" fill="#8B6F4E"/><circle cx="480" cy="75" r="1.5" fill="#8B6F4E"/><circle cx="540" cy="75" r="1.5" fill="#8B6F4E"/><circle cx="600" cy="75" r="1.5" fill="#8B6F4E"/>
    <circle cx="60" cy="120" r="1.5" fill="#8B6F4E"/><circle cx="120" cy="120" r="1.5" fill="#8B6F4E"/><circle cx="180" cy="120" r="1.5" fill="#8B6F4E"/><circle cx="240" cy="120" r="1.5" fill="#8B6F4E"/><circle cx="300" cy="120" r="1.5" fill="#8B6F4E"/><circle cx="360" cy="120" r="1.5" fill="#8B6F4E"/><circle cx="420" cy="120" r="1.5" fill="#8B6F4E"/><circle cx="480" cy="120" r="1.5" fill="#8B6F4E"/><circle cx="540" cy="120" r="1.5" fill="#8B6F4E"/><circle cx="600" cy="120" r="1.5" fill="#8B6F4E"/>
  </g>
  <!-- left shelf -->
  <rect x="48" y="102" width="182" height="4" rx="2" fill="#8B6F4E" opacity="0.5"/>
  <rect x="55" y="70" width="13" height="32" rx="2" fill="#C17F5A"/>
  <rect x="70" y="75" width="10" height="27" rx="2" fill="#6B8F71"/>
  <rect x="82" y="64" width="15" height="38" rx="2" fill="#8B7355"/>
  <rect x="99" y="77" width="9" height="25" rx="2" fill="#C4A882"/>
  <rect x="110" y="70" width="12" height="32" rx="2" fill="#5C7A6B"/>
  <rect x="124" y="76" width="9" height="26" rx="2" fill="#A0785A"/>
  <rect x="135" y="66" width="14" height="36" rx="2" fill="#7A6048"/>
  <rect x="151" y="73" width="11" height="29" rx="2" fill="#B8956A"/>
  <rect x="164" y="78" width="8" height="24" rx="2" fill="#6E8C75"/>
  <rect x="174" y="67" width="12" height="35" rx="2" fill="#A08060"/>
  <!-- arc -->
  <path d="M 234 102 Q 340 28 446 102" fill="none" stroke="#8B6F4E" stroke-width="1.5" opacity="0.35" stroke-dasharray="5 4"/>
  <path d="M 442 98 L 447 103 L 438 105" fill="none" stroke="#8B6F4E" stroke-width="1.5" opacity="0.35" stroke-linecap="round" stroke-linejoin="round"/>
  <circle cx="234" cy="102" r="3" fill="#8B6F4E" opacity="0.4"/>
  <circle cx="446" cy="102" r="3" fill="#8B6F4E" opacity="0.4"/>
  <!-- right shelf -->
  <rect x="450" y="102" width="182" height="4" rx="2" fill="#8B6F4E" opacity="0.5"/>
  <rect x="457" y="70" width="12" height="32" rx="2" fill="#6B8F71"/>
  <rect x="471" y="76" width="9" height="26" rx="2" fill="#A0785A"/>
  <rect x="482" y="64" width="15" height="38" rx="2" fill="#C17F5A"/>
  <rect x="499" y="72" width="11" height="30" rx="2" fill="#8B7355"/>
  <rect x="512" y="78" width="8" height="24" rx="2" fill="#5C7A6B"/>
  <rect x="522" y="66" width="14" height="36" rx="2" fill="#C4A882"/>
  <rect x="538" y="74" width="10" height="28" rx="2" fill="#7A6048"/>
  <rect x="550" y="79" width="9" height="23" rx="2" fill="#B8956A"/>
  <rect x="561" y="65" width="13" height="37" rx="2" fill="#6E8C75"/>
  <rect x="576" y="73" width="11" height="29" rx="2" fill="#A08060"/>
  <!-- text -->
  <text x="340" y="46" text-anchor="middle" font-family="Georgia,serif" font-size="22" font-weight="500" fill="#5C4033" letter-spacing="4">MEGURU</text>
  <text x="340" y="63" text-anchor="middle" font-family="Georgia,serif" font-size="12" fill="#5C4033" letter-spacing="2">一箱本棚</text>
  <text x="340" y="80" text-anchor="middle" font-family="sans-serif" font-size="11" fill="#6B4F30" letter-spacing="0.5">想いをひらき、共感・応援がめぐる</text>
</svg>
